HIERARCHY
ROOT hip
{
	OFFSET 0.000000 0.000000 0.000000 
	CHANNELS 6 Xposition Yposition Zposition Xrotation Zrotation Yrotation
	JOINT abdomen
	{
		OFFSET 0.000000 3.402643 0.000000 
		CHANNELS 3 Xrotation Zrotation Yrotation
		JOINT chest
		{
			OFFSET 0.000000 8.438565 -0.680529 
			CHANNELS 3 Xrotation Zrotation Yrotation
			JOINT neck
			{
				OFFSET 0.000000 10.207942 -0.272212 
				CHANNELS 3 Xrotation Zrotation Yrotation
				JOINT head
				{
					OFFSET 0.000000 3.130431 0.000000 
					CHANNELS 3 Xrotation Zrotation Yrotation
					End Site
					{
						OFFSET 0.000000 3.130435 0.000000 
					}
				}
			}
			JOINT lCollar
			{
				OFFSET 3.470700 6.669187 -0.816635 
				CHANNELS 3 Yrotation Zrotation Xrotation
				JOINT lShldr
				{
					OFFSET 3.198488 0.000000 0.000000 
					CHANNELS 3 Zrotation Yrotation Xrotation
					JOINT lForeArm
					{
						OFFSET 10.139888 0.000000 0.000000 
						CHANNELS 3 Yrotation Zrotation Xrotation
						JOINT lHand
						{
							OFFSET 8.370511 0.000000 0.000000 
							CHANNELS 3 Zrotation Yrotation Xrotation
							End Site
							{
								OFFSET 4.083176 0.000000 0.000000 
							}
						}
					}
				}
			}
			JOINT rCollar
			{
				OFFSET -3.470700 6.669187 -0.816635 
				CHANNELS 3 Yrotation Zrotation Xrotation
				JOINT rShldr
				{
					OFFSET -3.198488 0.000000 0.000000 
					CHANNELS 3 Zrotation Yrotation Xrotation
					JOINT rForeArm
					{
						OFFSET -10.139888 0.000000 0.000000 
						CHANNELS 3 Yrotation Zrotation Xrotation
						JOINT rHand
						{
							OFFSET -8.370511 0.000000 0.000000 
							CHANNELS 3 Zrotation Yrotation Xrotation
							End Site
							{
								OFFSET -4.083176 0.000000 0.000000 
							}
						}
					}
				}
			}
		}
	}
	JOINT lThigh
	{
		OFFSET 5.308129 -1.633274 1.361059 
		CHANNELS 3 Xrotation Zrotation Yrotation
		JOINT lShin
		{
			OFFSET -2.041588 -20.007561 0.000000 
			CHANNELS 3 Xrotation Zrotation Yrotation
			JOINT lFoot
			{
				OFFSET 0.000000 -19.190928 -1.224953 
				CHANNELS 3 Xrotation Yrotation Zrotation
				End Site
				{
					OFFSET 0.000000 -2.449906 4.627600 
				}
			}
		}
	}
	JOINT rThigh
	{
		OFFSET -5.308129 -1.633274 1.361059 
		CHANNELS 3 Xrotation Zrotation Yrotation
		JOINT rShin
		{
			OFFSET 2.041588 -20.007561 0.000000 
			CHANNELS 3 Xrotation Zrotation Yrotation
			JOINT rFoot
			{
				OFFSET 0.000000 -19.190928 -1.224953 
				CHANNELS 3 Xrotation Yrotation Zrotation
				End Site
				{
					OFFSET 0.000000 -2.449906 4.627600 
				}
			}
		}
	}
}
MOTION
Frames: 18
Frame Time: 0.016667
-0.211875 74.111656 0.009416 6.318840 -4.552370 6.858990 -17.729300 -1.096930 -2.148060 23.662201 0.399803 -1.198940 -1.715640 4.476090 -13.415300 5.398220 7.377780 -6.374730 2.000000 -2.000000 0.000000 99.345802 -175.272003 -4.882120 25.293200 -0.338458 0.058472 0.066189 -0.060362 -159.020996 -2.000000 2.000000 0.000000 -95.769997 -171.565002 -1.095700 -28.730801 0.334733 0.065723 -0.055101 0.014991 -142.283005 -12.744221 7.344823 -4.526237 19.318222 3.584884 1.325580 -2.879158 -9.388687 0.040852 -3.759758 9.825666 0.265544 1.874275 -0.451980 -0.778084 -10.853418 -11.746776 -4.312387 
-0.228836 74.094475 -0.090960 6.914400 -4.333610 7.472320 -17.904200 -1.151960 -2.211410 23.593901 0.477844 -1.234330 -1.181440 4.273440 -13.682500 5.623870 7.230140 -6.515950 2.000000 -2.000000 0.000000 99.257698 -175.302002 -4.275920 25.527599 -0.338218 0.058977 0.066656 -0.061501 -159.460999 -2.000000 2.000000 0.000000 -95.711502 -171.723999 -2.179290 -28.525700 0.334968 0.065293 -0.055051 0.014446 -142.087997 -14.134007 7.121170 -4.399522 20.268393 3.397991 1.444524 -1.741121 -9.236272 0.278841 -4.122591 9.670633 -0.098417 1.280395 -0.360519 -0.730678 -9.707446 -13.179754 -4.415125 
-0.227406 74.087624 -0.176185 7.481920 -4.279790 8.158550 -18.117300 -1.174160 -2.326130 23.476700 0.487647 -1.293400 -0.794303 4.126070 -13.838900 5.780850 7.141390 -6.606370 2.000000 -2.000000 0.000000 99.160004 -175.410995 -3.651180 25.820601 -0.337915 0.059607 0.066983 -0.062283 -159.763000 -2.000000 2.000000 0.000000 -95.721397 -171.705994 -3.058240 -28.545200 0.334945 0.065334 -0.055086 0.014828 -142.225006 -15.519165 6.995538 -4.490696 21.366312 3.235892 1.543356 -0.890281 -9.138566 0.416424 -4.311267 9.558739 -0.188341 0.396399 -0.139279 -0.696387 -8.855476 -14.307438 -4.567233 
-0.188083 74.095596 -0.223950 7.815260 -4.315170 8.685120 -18.263100 -1.169090 -2.368140 23.369200 0.370647 -1.319620 -0.726317 4.119350 -13.956100 5.810430 7.150980 -6.661020 2.000000 -2.000000 0.000000 99.071999 -175.550003 -2.928850 26.094000 -0.337630 0.060194 0.067165 -0.062711 -159.929993 -2.000000 2.000000 0.000000 -95.789803 -171.570999 -3.703120 -28.740499 0.334722 0.065743 -0.055207 0.016080 -142.673996 -16.675577 6.835277 -4.558714 22.550262 3.134204 1.659272 -0.343039 -9.267532 0.493483 -4.533793 9.573981 -0.174031 0.194759 -0.172412 -0.634878 -8.747933 -15.000554 -4.602234 
-0.123591 74.110764 -0.246552 7.904010 -4.372290 8.787660 -18.275200 -1.110830 -2.212650 23.359400 0.156063 -1.232570 -0.970884 4.209630 -14.120500 5.732040 7.210000 -6.737380 2.000000 -2.000000 0.000000 99.042702 -175.669006 -2.108820 26.426100 -0.337279 0.060904 0.067250 -0.062912 -160.007996 -2.000000 2.000000 0.000000 -95.877800 -171.494995 -4.289250 -28.896799 0.334542 0.066070 -0.055356 0.017494 -143.182007 -17.384098 6.735104 -4.324469 23.618919 3.054722 1.748618 -0.186165 -9.716590 0.490416 -4.467451 9.600222 -0.007198 0.035584 -0.185526 -0.572071 -8.879613 -15.328259 -4.661995 
-0.047917 74.118744 -0.265144 7.923600 -4.372080 8.629920 -18.210699 -1.048660 -1.935570 23.437500 -0.068273 -1.097200 -1.250070 4.218420 -14.348100 5.623820 7.220380 -6.848250 2.000000 -2.000000 0.000000 99.032898 -175.787994 -1.239960 26.846001 -0.336830 0.061800 0.067293 -0.063013 -160.046997 -2.000000 2.000000 0.000000 -96.004799 -171.505005 -4.748210 -29.004200 0.334418 0.066294 -0.055543 0.019124 -143.766998 -17.791031 6.569988 -3.910848 24.364931 3.009994 1.798700 -0.192916 -10.585889 0.439657 -4.330688 9.552976 0.431113 -0.028151 -0.199075 -0.574174 -9.122139 -15.558274 -4.746211 
0.042172 74.117844 -0.285439 7.912990 -4.294810 8.309370 -18.146000 -0.972789 -1.621820 23.486401 -0.253574 -0.940755 -1.433620 4.160630 -14.529900 5.554750 7.191470 -6.935740 2.000000 -2.000000 0.000000 98.974297 -175.985001 -0.390815 27.295200 -0.336342 0.062754 0.067368 -0.063189 -160.115005 -2.000000 2.000000 0.000000 -96.239304 -171.604004 -4.933510 -29.052999 0.334362 0.066396 -0.055765 0.020888 -144.401993 -17.963612 6.226055 -3.474447 24.580008 2.955556 1.843618 -0.148063 -11.718683 0.394390 -4.371862 9.413844 0.898465 0.422249 -0.396497 -0.554975 -9.707991 -15.694562 -4.808169 
0.147503 74.113571 -0.305178 7.911210 -4.120700 7.884300 -18.129499 -0.922245 -1.320240 23.457100 -0.390125 -0.791316 -1.506540 4.107900 -14.608200 5.525120 7.172100 -6.978980 2.000000 -2.000000 0.000000 98.857201 -176.319000 0.360346 27.724899 -0.335868 0.063664 0.067444 -0.063365 -160.182999 -2.000000 2.000000 0.000000 -96.522598 -171.897003 -5.001130 -28.886999 0.334554 0.066049 -0.055922 0.022053 -144.822006 -17.827291 5.676631 -3.170434 24.064190 2.901799 1.820806 0.074421 -12.786102 0.364346 -4.174254 8.923081 1.315020 0.421240 -0.339619 -0.565593 -9.998231 -15.606466 -4.992884 
0.263447 74.113350 -0.309744 7.898980 -3.869300 7.402940 -18.112400 -0.884411 -1.024810 23.466900 -0.477899 -0.649375 -1.483260 4.046820 -14.651800 5.515120 7.142860 -7.000480 2.000000 -2.000000 0.000000 98.700996 -176.731003 1.091790 28.144800 -0.335399 0.064549 0.067455 -0.063390 -160.192993 -2.000000 2.000000 0.000000 -96.815697 -172.326996 -5.166050 -28.545200 0.334945 0.065334 -0.055949 0.022242 -144.891006 -17.376665 4.930820 -3.064113 22.797466 2.857741 1.751704 0.761914 -13.292344 0.438987 -4.271341 8.428082 1.590192 1.122059 -0.604179 -0.558277 -10.365144 -15.380035 -4.929895 
0.382906 74.112221 -0.292590 7.906060 -3.569350 6.926280 -18.094500 -0.854442 -0.778165 23.525499 -0.497379 -0.523926 -1.325400 3.929180 -14.645900 5.554060 7.064560 -7.007460 2.000000 -2.000000 0.000000 98.515503 -177.162003 1.764590 28.437799 -0.335068 0.065165 0.067498 -0.063491 -160.231995 -2.000000 2.000000 0.000000 -97.147903 -172.707993 -5.389700 -28.291300 0.335234 0.064801 -0.055833 0.021403 -144.587997 -16.668858 4.062554 -3.235520 21.146830 2.799614 1.657538 1.590511 -12.923619 0.553234 -4.208797 7.707543 1.962165 1.500528 -0.701951 -0.584482 -10.771504 -15.224623 -5.014850 
0.502824 74.098404 -0.274010 7.963120 -3.375420 6.402780 -18.124901 -0.803339 -0.558481 23.593901 -0.516851 -0.418135 -1.132900 3.785390 -14.576800 5.573220 6.966830 -6.978380 2.000000 -2.000000 0.000000 98.300797 -177.563995 2.203090 28.506201 -0.334990 0.065308 0.067661 -0.063867 -160.378998 -2.000000 2.000000 0.000000 -97.528900 -173.011002 -5.545180 -28.213200 0.335322 0.064637 -0.055626 0.019803 -144.011993 -16.099360 3.319738 -3.548898 19.921171 2.735560 1.596438 1.577870 -12.102780 0.458996 -4.344595 7.080039 2.386428 2.094776 -0.881116 -0.594855 -11.258309 -15.248829 -5.112144 
0.619051 74.091331 -0.251420 7.826010 -3.357180 5.700600 -18.135201 -0.702454 -0.344881 23.535299 -0.526631 -0.300928 -0.976350 3.704680 -14.425600 5.592520 6.898400 -6.919270 2.000000 -2.000000 0.000000 98.066399 -177.955002 2.289700 28.310900 -0.335212 0.064898 0.067868 -0.064343 -160.563995 -2.000000 2.000000 0.000000 -97.919601 -173.304001 -5.622560 -28.252300 0.335278 0.064719 -0.055413 0.018010 -143.367004 -15.537871 2.856321 -3.402898 19.638062 2.709617 1.577139 0.593529 -11.573275 0.211236 -4.304334 6.610173 2.780318 2.628850 -1.021067 -0.608659 -11.570460 -15.157510 -5.158589 
0.728072 74.106155 -0.211943 7.395820 -3.389600 5.028650 -18.027901 -0.549610 -0.159706 23.466900 -0.468146 -0.180128 -0.909927 3.732710 -14.260700 5.592470 6.888630 -6.841410 2.000000 -2.000000 0.000000 97.822304 -178.238007 2.269540 27.861601 -0.335716 0.063952 0.068022 -0.064694 -160.701004 -2.000000 2.000000 0.000000 -98.261597 -173.666000 -5.777890 -28.369400 0.335145 0.064965 -0.055263 0.016624 -142.869003 -14.689821 2.596253 -2.578294 19.557226 2.724761 1.580798 -0.083904 -11.493930 0.027708 -4.329693 6.373991 3.005098 3.998220 -1.486794 -0.605800 -11.972134 -14.967831 -4.907245 
0.815671 74.125031 -0.180195 6.975460 -3.431500 4.677650 -17.871401 -0.433048 -0.126857 23.466801 -0.312097 -0.142872 -0.887260 3.815580 -14.170300 5.592520 6.898400 -6.792320 2.000000 -2.000000 0.000000 97.636803 -178.365005 2.337620 27.197599 -0.336449 0.062547 0.068133 -0.064944 -160.798996 -2.000000 2.000000 0.000000 -98.505898 -174.057007 -6.068850 -28.633101 0.334845 0.065518 -0.055164 0.015644 -142.516998 -13.940934 2.356821 -1.558040 19.398342 2.724782 1.554042 0.066091 -11.690400 0.008763 -4.119419 5.995414 3.247606 4.760512 -1.682004 -0.649822 -12.140621 -14.951897 -4.883574 
0.881307 74.133003 -0.174481 6.847870 -3.374250 4.565280 -17.851700 -0.394459 -0.190655 23.398399 -0.107290 -0.161594 -0.819042 3.923140 -14.162200 5.602410 6.908100 -6.790880 2.000000 -2.000000 0.000000 97.539101 -178.453003 2.532740 26.445601 -0.337258 0.060946 0.068122 -0.064919 -160.789001 -2.000000 2.000000 0.000000 -98.574402 -174.272995 -6.400370 -29.082300 0.334328 0.066457 -0.055148 0.015481 -142.459000 -13.612588 1.935402 -0.741533 19.206520 2.688304 1.560993 0.383535 -11.813463 0.026855 -4.286806 5.483898 3.488138 5.541153 -1.877190 -0.666742 -12.192252 -15.176919 -4.886939 
0.938593 74.148514 -0.175630 6.875420 -3.112270 4.399800 -17.939600 -0.448624 -0.223901 23.232401 0.097550 -0.190737 -0.635103 4.031930 -14.118200 5.661590 6.937070 -6.773230 2.000000 -2.000000 0.000000 97.519699 -178.639008 2.747170 25.722900 -0.338016 0.059398 0.067868 -0.064343 -160.563995 -2.000000 2.000000 0.000000 -98.486603 -174.322998 -6.742050 -29.580400 0.333746 0.067493 -0.055243 0.016433 -142.800995 -13.280489 1.255235 -0.245661 18.711931 2.628450 1.560009 0.338333 -11.728880 -0.040442 -4.636723 4.699211 3.771620 6.268950 -2.012762 -0.694759 -13.683354 -15.432191 -5.401021 
1.007575 74.180077 -0.175630 6.931980 -2.772580 4.077030 -18.008301 -0.536942 -0.153730 23.134800 0.224382 -0.165640 -0.466660 4.115540 -13.996200 5.701110 6.966140 -6.718840 2.000000 -2.000000 0.000000 97.539200 -178.785995 2.922620 24.961201 -0.338794 0.057755 0.067336 -0.063114 -160.085999 -2.000000 2.000000 0.000000 -98.281601 -174.363007 -7.152120 -30.117500 0.333108 0.068605 -0.055466 0.018472 -143.533005 -12.813127 0.395664 -0.192801 17.953465 2.540428 1.520409 -0.046057 -11.294589 -0.163689 -5.225498 3.843428 3.847598 7.313015 -2.179874 -0.739501 -13.275402 -15.447868 -5.222497 
1.085823 74.219391 -0.186767 7.019020 -2.607290 3.643830 -18.018400 -0.580351 -0.047199 23.193399 0.214616 -0.126799 -0.476054 4.102830 -13.870300 5.681430 6.966250 -6.652850 2.000000 -2.000000 0.000000 97.597801 -178.718002 2.932540 24.121401 -0.339627 0.055932 0.066646 -0.061476 -159.451004 -2.000000 2.000000 0.000000 -97.998596 -174.481003 -7.620590 -30.752300 0.332341 0.069911 -0.055794 0.021104 -144.479996 -12.484634 -0.330167 -0.619880 17.165499 2.452029 1.482487 -0.563142 -10.531248 -0.306454 -5.871274 3.180215 3.606889 8.228245 -2.222614 -0.821993 -12.535566 -15.267323 -5.041844 
